<svg width="18" height="18" viewBox="0 0 18 18" fill="none" xmlns="http://www.w3.org/2000/svg">
<g clip-path="url(#clip0_487_12283)">
<path d="M10.2471 10.0964C10.2203 10.0964 10.1943 10.0871 10.1735 10.0675C10.1319 10.0276 10.131 9.9621 10.1709 9.92129C10.3303 9.75973 10.5106 9.64069 10.7073 9.56756C10.9595 9.47318 11.1502 9.48253 11.6104 9.50464C11.7057 9.50889 11.8123 9.51399 11.9345 9.51909C12.0601 9.5242 12.3773 9.5361 12.6079 9.5378C12.8332 9.5395 13.218 9.53185 13.965 9.44427C14.5898 9.37114 15.0024 9.32267 15.5778 9.19853C15.5865 9.19683 16.4895 8.99701 17.4567 8.47408C17.5407 8.42901 17.7947 8.29126 17.7869 8.19773C17.7799 8.11185 17.5607 8.01406 17.4029 7.9758C16.415 8.02682 15.4383 8.13225 14.4997 8.28956C14.4105 8.30487 12.2993 8.65264 11.1398 8.43071C10.5409 8.31592 10.1622 7.9843 10.1466 7.96985C10.1301 7.95539 10.1163 7.94264 10.1093 7.93584C10.0677 7.89587 10.066 7.83125 10.1067 7.78958C10.1466 7.74877 10.2133 7.74707 10.2558 7.78703C10.2627 7.79299 10.274 7.80404 10.2887 7.81679C10.2922 7.82019 10.6423 8.1246 11.1805 8.22749C12.3019 8.44176 14.4434 8.08889 14.465 8.08549C15.4157 7.92648 16.4063 7.82019 17.4081 7.76833C17.4177 7.76833 17.4281 7.76833 17.4376 7.77088C17.5269 7.79128 17.9749 7.90693 17.9975 8.18072C18.0157 8.4069 17.7297 8.56166 17.5589 8.65434C16.6524 9.14411 15.7763 9.36774 15.6237 9.39835C15.0379 9.52675 14.621 9.57521 13.9901 9.64919C13.231 9.73847 12.8366 9.74612 12.6061 9.74357C12.3721 9.74187 12.0523 9.72997 11.9258 9.72487C11.8027 9.71977 11.6953 9.71466 11.6 9.71041C11.1588 9.68915 10.9933 9.68065 10.7827 9.75973C10.6155 9.82265 10.4603 9.92469 10.3225 10.0641C10.3017 10.0854 10.274 10.0956 10.2471 10.0956V10.0964Z" fill="white"/>
<path d="M6.80917 8.97406C6.79183 8.97406 6.7745 8.96981 6.75803 8.9613C6.7069 8.93324 6.6887 8.87117 6.71644 8.821C6.78057 8.70706 6.80657 8.59823 6.79357 8.49704C6.74677 8.12886 6.20079 7.89078 5.99453 7.80149L5.97633 7.79384C5.95206 7.78364 3.51335 6.6961 1.52529 3.84505C1.3459 3.58741 1.32164 3.37313 1.3095 3.27025L1.3069 3.24729C1.27484 2.99305 1.4005 2.78642 1.46723 2.67504C1.4941 2.62997 1.55216 2.61211 1.60069 2.63337C1.74195 2.69459 1.87975 2.76687 2.01061 2.8485C2.24633 2.99475 2.46473 3.17246 2.65799 3.37653C3.03411 3.77277 3.45616 4.12905 3.86521 4.47427C4.133 4.70045 4.40945 4.93428 4.67118 5.17662C5.47455 5.92233 6.59077 6.56431 7.98779 7.08554C8.04239 7.10595 8.06925 7.16547 8.04845 7.21904C8.02765 7.27261 7.96699 7.29897 7.91239 7.27856C6.48938 6.74712 5.35062 6.09069 4.52645 5.32627C4.26819 5.08734 3.99347 4.85435 3.72741 4.62987C3.31403 4.28125 2.88764 3.92072 2.50806 3.52108C2.43613 3.44541 2.23073 3.22858 1.89795 3.02281C1.80262 2.96329 1.70295 2.90972 1.60156 2.86125C1.54869 2.95733 1.49843 3.08148 1.51663 3.22178L1.51923 3.24814C1.52963 3.34082 1.54956 3.51428 1.69949 3.72941C3.65462 6.53285 6.03873 7.59572 6.06213 7.60592L6.08033 7.61358C6.31605 7.71561 6.94176 7.98771 7.00329 8.47238C7.02149 8.61778 6.98769 8.76913 6.90103 8.92134C6.88196 8.95535 6.84556 8.97491 6.80917 8.97491V8.97406Z" fill="white"/>
<path d="M10.1232 7.83125C10.1171 7.83125 10.1111 7.83125 10.105 7.82955C10.0478 7.81935 10.0097 7.76578 10.0192 7.70966C10.2931 6.18507 10.5643 4.86966 10.8252 3.79998C11.223 2.1674 11.2654 1.99649 11.281 1.96418C11.2836 1.95908 11.5401 1.41659 11.6355 0.54503C11.6441 0.469353 11.6476 0.360515 11.5852 0.293341C11.5566 0.262731 11.515 0.241473 11.4604 0.230419C11.4569 0.230419 11.4535 0.228719 11.45 0.227868C11.3755 0.20491 11.3053 0.200659 11.2412 0.214263C11.1649 0.231269 11.0384 0.352862 10.8659 0.576491C10.0192 1.67338 9.67341 3.05852 9.33889 4.39774C9.19676 4.96574 9.0503 5.5533 8.86657 6.11535C8.86051 6.13405 8.85357 6.15786 8.84577 6.18507C8.79898 6.34833 8.71231 6.65359 8.47052 6.93078C8.39166 7.02092 8.30326 7.10254 8.2062 7.17482C8.1594 7.20968 8.09353 7.20033 8.05887 7.15441C8.02334 7.1085 8.03287 7.04387 8.07967 7.00986C8.1646 6.94694 8.2426 6.87466 8.31106 6.79644C8.52252 6.5541 8.59878 6.28796 8.64385 6.1298C8.65251 6.10004 8.65945 6.07368 8.66638 6.05242C8.84751 5.49803 8.9931 4.91387 9.13436 4.34927C9.47408 2.98964 9.82507 1.58325 10.6986 0.452347C10.917 0.170048 11.0609 0.0425028 11.1961 0.0127423C11.2957 -0.00936547 11.4015 -0.00341337 11.5089 0.028898C11.6043 0.0493052 11.6823 0.0909699 11.7403 0.153892C11.8738 0.297593 11.8521 0.500814 11.8443 0.567138C11.7447 1.47611 11.4821 2.02965 11.4708 2.05261C11.4561 2.09853 11.2957 2.75581 11.0297 3.84504C10.7688 4.91387 10.4984 6.22503 10.2255 7.74537C10.2168 7.79554 10.1717 7.8304 10.1215 7.8304L10.1232 7.83125Z" fill="white"/>
<path d="M0.842359 13.9075C0.435907 13.9075 0.133452 13.7647 0.00952284 13.5045C-0.00867648 13.4662 -0.00174341 13.422 0.0277222 13.3914C1.03215 12.3158 2.3529 11.5913 3.63032 10.8915C4.67028 10.3218 5.74491 9.73255 6.64101 8.95708C6.68434 8.91967 6.75107 8.92307 6.79007 8.96643C6.8282 9.00895 6.82474 9.07442 6.78054 9.11268C5.86711 9.90261 4.78208 10.497 3.73258 11.0726C2.49156 11.7529 1.20981 12.4552 0.233981 13.4764C0.433307 13.7596 0.955888 13.7043 1.11882 13.6796C2.5037 13.4662 3.73258 12.7035 4.92074 11.9663C5.42512 11.6534 5.94597 11.3303 6.47462 11.0505L6.50668 11.0335C6.64534 10.9587 6.93393 10.8039 7.32738 10.7342C7.54318 10.6959 7.76504 10.6866 7.98689 10.7061C8.04496 10.7112 8.08742 10.7614 8.08222 10.8184C8.07702 10.8754 8.02589 10.917 7.96783 10.9119C7.76504 10.8941 7.56138 10.9034 7.36378 10.9374C7.00413 11.0012 6.74587 11.1398 6.60635 11.2146L6.57255 11.2325C6.04997 11.5088 5.53172 11.8302 5.0308 12.1406C3.82445 12.8889 2.57736 13.6626 1.14915 13.8829C1.03995 13.8999 0.936822 13.9075 0.838892 13.9075H0.842359Z" fill="white"/>
<path d="M11.7612 18C11.477 18 11.165 17.8138 10.8894 17.4694C9.99674 16.353 9.62149 14.9534 9.25837 13.5988C9.10758 13.0368 8.95158 12.4552 8.76092 11.9034C8.75399 11.8821 8.74619 11.8566 8.73666 11.8268C8.68899 11.6687 8.6084 11.4051 8.3926 11.1653C8.32241 11.0879 8.24354 11.0173 8.15775 10.9553C8.11095 10.9221 8.10055 10.8566 8.13435 10.8107C8.16901 10.7648 8.23488 10.7546 8.28167 10.7878C8.3796 10.8583 8.4706 10.9383 8.55033 11.0275C8.79732 11.3013 8.88918 11.604 8.93858 11.7665C8.94638 11.7937 8.95418 11.8166 8.96025 11.8353C9.15351 12.394 9.31037 12.979 9.46203 13.5444C9.81995 14.8777 10.1891 16.2569 11.0549 17.3393C11.1572 17.4669 11.5012 17.8563 11.8435 17.7823C11.8392 16.3827 11.3886 15.0112 10.9526 13.6839C10.5843 12.5615 10.203 11.4008 10.0834 10.2121C10.0773 10.1551 10.1198 10.105 10.1779 10.099C10.2359 10.0931 10.2871 10.1347 10.2931 10.1917C10.411 11.3583 10.788 12.5079 11.1537 13.6201C11.6026 14.9865 12.0663 16.3997 12.0541 17.8589C12.0541 17.9005 12.0281 17.9379 11.9883 17.9541C11.9155 17.983 11.8392 17.9975 11.7603 17.9975L11.7612 18Z" fill="white"/>
<path d="M11.0426 1.43954C10.9906 1.43954 10.9412 1.42594 10.8996 1.39958C10.7523 1.3052 10.7679 1.09942 10.8138 0.984634C10.8632 0.861341 10.9837 0.733796 11.131 0.74655C11.2012 0.752502 11.2471 0.788215 11.2653 0.80182C11.3867 0.894502 11.4508 1.10198 11.3529 1.26183C11.3017 1.34516 11.2125 1.40893 11.1145 1.43104C11.0903 1.43614 11.066 1.43954 11.0426 1.43954ZM11.0149 1.22612C11.0261 1.23292 11.0452 1.23462 11.0669 1.22952C11.1085 1.22017 11.1509 1.19041 11.1726 1.15554C11.2142 1.08752 11.1778 0.997389 11.1353 0.964227C11.1284 0.959125 11.1206 0.952323 11.1128 0.952323C11.0885 0.948922 11.0339 1.00079 11.0105 1.06031C10.9871 1.11898 10.9845 1.20741 11.0149 1.22697V1.22612Z" fill="white"/>
<path d="M10.7775 2.32475C10.7342 2.32475 10.6909 2.31284 10.6554 2.28903C10.599 2.25162 10.5635 2.187 10.5592 2.11217C10.554 2.03139 10.5852 1.95402 10.6424 1.9047C10.6961 1.85878 10.7741 1.83752 10.8503 1.84858C10.9136 1.85793 10.9647 1.88769 10.9925 1.93276C11.0098 1.95912 11.0167 1.99228 11.015 2.0399C11.0124 2.10707 11.0089 2.21931 10.911 2.28393C10.8711 2.31029 10.8243 2.3239 10.7784 2.3239L10.7775 2.32475ZM10.7732 2.11727C10.7775 2.11727 10.7871 2.11727 10.7914 2.11387C10.7983 2.10707 10.8009 2.07646 10.8018 2.0535C10.7931 2.0535 10.7845 2.0569 10.7793 2.06115C10.7663 2.07306 10.7645 2.10707 10.7723 2.11812L10.7732 2.11727Z" fill="white"/>
<path d="M10.319 3.86373C10.2739 3.86373 10.2289 3.85268 10.189 3.82972C10.0789 3.7668 10.0512 3.63925 10.0616 3.54912C10.0746 3.43178 10.1552 3.36376 10.2081 3.31954C10.2462 3.28723 10.293 3.25407 10.3563 3.25067C10.4377 3.24556 10.5192 3.29488 10.5582 3.37396C10.5894 3.43773 10.5894 3.4947 10.585 3.54742C10.5772 3.6384 10.566 3.76255 10.4516 3.82887C10.4117 3.85183 10.3649 3.86373 10.319 3.86373ZM10.2947 3.65116C10.3103 3.65966 10.332 3.65796 10.3441 3.65116C10.3658 3.6384 10.371 3.57803 10.3753 3.52871C10.3788 3.4913 10.3753 3.47855 10.3693 3.46409C10.3693 3.46239 10.3675 3.46154 10.3667 3.45984C10.3632 3.46239 10.358 3.46579 10.3502 3.47259C10.3025 3.51341 10.2748 3.53722 10.2713 3.57208C10.2696 3.58398 10.2705 3.6367 10.2947 3.65031V3.65116Z" fill="white"/>
<path d="M9.41936 6.62042C9.38383 6.62042 9.34917 6.61362 9.31623 6.59661C9.22784 6.55155 9.17324 6.44356 9.16804 6.30666C9.16371 6.18252 9.20357 6.02351 9.3275 5.94954C9.4341 5.88576 9.60656 5.88491 9.69409 5.98525C9.72702 6.02266 9.73742 6.06348 9.74435 6.10259C9.76515 6.21908 9.79288 6.37894 9.67415 6.50478C9.61262 6.57025 9.51383 6.62127 9.41936 6.62127V6.62042ZM9.4133 6.41295C9.42803 6.41805 9.48436 6.40019 9.51989 6.36278C9.56409 6.31602 9.55542 6.24289 9.53723 6.1366C9.53463 6.1213 9.53289 6.11619 9.53202 6.11619C9.52249 6.10939 9.46703 6.10769 9.4367 6.12555C9.4029 6.14595 9.37863 6.21398 9.37776 6.2871C9.37776 6.36618 9.40376 6.407 9.41243 6.41295H9.4133Z" fill="white"/>
<path d="M9.44538 7.27092C9.42892 7.27092 9.41245 7.26752 9.39685 7.25902L9.0658 7.08896C9.0138 7.0626 8.99386 7.00053 9.02073 6.94951C9.0476 6.89934 9.11086 6.87893 9.16286 6.90529L9.49391 7.07535C9.54591 7.10171 9.56584 7.16378 9.53898 7.2148C9.51991 7.25052 9.48351 7.27007 9.44538 7.27007V7.27092Z" fill="white"/>
<path d="M9.15342 8.19689C9.14562 8.19689 9.13782 8.19689 9.13002 8.19434C8.96536 8.15863 8.8241 8.04809 8.75044 7.90014C8.7253 7.84912 8.74697 7.78705 8.79984 7.76239C8.85183 7.73773 8.9151 7.75899 8.94023 7.81085C8.9853 7.90184 9.07542 7.97156 9.17595 7.99367C9.23315 8.00642 9.26868 8.06169 9.25569 8.11696C9.24442 8.16543 9.20109 8.19774 9.15256 8.19774L9.15342 8.19689Z" fill="white"/>
<path d="M7.94451 8.71645C7.91244 8.71645 7.88124 8.70285 7.86044 8.67564C7.82491 8.63057 7.83444 8.5651 7.88038 8.53109C7.93844 8.48772 7.9809 8.42565 7.99997 8.35678C8.01557 8.30151 8.07277 8.26919 8.1291 8.2845C8.18543 8.29981 8.21836 8.35592 8.20276 8.41119C8.17156 8.52343 8.10223 8.62462 8.00777 8.69519C7.9887 8.70965 7.96617 8.71645 7.94364 8.71645H7.94451Z" fill="white"/>
<path d="M7.21205 7.9418C7.16178 7.9418 7.11758 7.90694 7.10892 7.85677C7.09852 7.80065 7.13578 7.74708 7.19385 7.73603C7.26144 7.72412 7.32731 7.68756 7.37237 7.63739C7.41137 7.59488 7.47724 7.59063 7.52143 7.62889C7.56477 7.66715 7.5691 7.73178 7.5301 7.77514C7.45297 7.86102 7.34637 7.91969 7.23198 7.9401C7.22591 7.94095 7.21898 7.9418 7.21291 7.9418H7.21205Z" fill="white"/>
<path d="M9.30162 9.22322C9.25396 9.22322 9.21062 9.19176 9.19936 9.14414C9.17942 9.06081 9.18202 8.97408 9.20889 8.8933C9.22622 8.83888 9.28602 8.80912 9.34149 8.82613C9.39695 8.84314 9.42728 8.90181 9.40995 8.95623C9.39522 9.00044 9.39348 9.05061 9.40475 9.09568C9.41862 9.15094 9.38395 9.20706 9.32675 9.22067C9.31809 9.22237 9.31029 9.22322 9.30162 9.22322Z" fill="white"/>
<path d="M10.6579 9.19686C10.6085 9.19686 10.5643 9.162 10.5548 9.11268L10.5054 8.85249C10.495 8.79637 10.5323 8.7428 10.5895 8.73175C10.6467 8.72154 10.7013 8.75811 10.7125 8.81423L10.7619 9.07442C10.7723 9.13054 10.7351 9.18411 10.6779 9.19516C10.6718 9.19601 10.6649 9.19686 10.6588 9.19686H10.6579Z" fill="white"/>
<path d="M8.47827 9.60838C8.47827 9.60838 8.47133 9.60838 8.46787 9.60838C8.34827 9.59733 8.24774 9.50124 8.23214 9.38475C8.22434 9.32778 8.26594 9.27676 8.32314 9.26911C8.38034 9.26146 8.4332 9.30227 8.441 9.35839C8.4436 9.3788 8.46613 9.40091 8.4878 9.40261C8.54586 9.40771 8.58833 9.45873 8.58313 9.51485C8.57793 9.56842 8.532 9.60838 8.47827 9.60838Z" fill="white"/>
<path d="M8.34819 10.3235C8.33865 10.3235 8.32825 10.3218 8.31872 10.3192C8.17919 10.2793 8.07693 10.1475 8.0752 10.0046C8.0752 9.94764 8.12113 9.90087 8.17919 9.90002H8.18006C8.23812 9.90002 8.28492 9.94594 8.28579 10.0021C8.28579 10.0539 8.32652 10.1058 8.37765 10.1203C8.43312 10.1364 8.46605 10.1934 8.44958 10.2486C8.43658 10.2937 8.39412 10.3235 8.34819 10.3235Z" fill="white"/>
<path d="M4.27337 11.934C4.23783 11.934 4.20317 11.9263 4.17024 11.9101C4.08184 11.8651 4.02638 11.7571 4.02204 11.6193C4.01771 11.4952 4.05757 11.3362 4.1815 11.2622C4.2881 11.1984 4.46056 11.1976 4.54809 11.2979C4.58102 11.3353 4.59142 11.3762 4.59835 11.4153C4.61829 11.5318 4.64689 11.6916 4.52816 11.8175C4.46576 11.8829 4.36783 11.934 4.27337 11.934ZM4.2673 11.7265C4.28203 11.7316 4.33836 11.7137 4.3739 11.6763C4.41809 11.6295 4.40943 11.5564 4.39123 11.4501C4.38863 11.4348 4.3869 11.4297 4.38603 11.4289C4.3765 11.4221 4.32103 11.4204 4.2907 11.4382C4.2569 11.4586 4.23177 11.5267 4.23177 11.5998C4.23177 11.678 4.25777 11.7197 4.26643 11.7256L4.2673 11.7265Z" fill="white"/>
<path d="M16.9227 8.54464C16.8777 8.54464 16.8326 8.53359 16.7928 8.51063C16.6827 8.44771 16.655 8.32016 16.6654 8.23003C16.6784 8.11269 16.759 8.04466 16.8118 8.00045C16.85 7.96814 16.8967 7.93498 16.96 7.93157C17.0423 7.92647 17.1229 7.97579 17.1619 8.05487C17.1931 8.11864 17.1931 8.17561 17.1888 8.22748C17.181 8.31846 17.1697 8.44261 17.0553 8.50978C17.0155 8.53274 16.9687 8.54464 16.9227 8.54464ZM16.8985 8.33207C16.9141 8.34057 16.9357 8.33887 16.9479 8.33207C16.9695 8.31931 16.9747 8.25894 16.9791 8.20962C16.9825 8.17221 16.9791 8.15946 16.973 8.145C16.973 8.1433 16.9713 8.14245 16.9704 8.1416C16.9669 8.14415 16.9617 8.14755 16.9539 8.15435C16.9063 8.19517 16.8785 8.21898 16.8751 8.25384C16.8733 8.26574 16.8742 8.31846 16.8985 8.33207Z" fill="white"/>
<path d="M16.2614 8.68498C16.2181 8.68498 16.1748 8.67307 16.1392 8.64926C16.0829 8.61185 16.0474 8.54723 16.043 8.4724C16.0378 8.39162 16.069 8.31425 16.1254 8.26493C16.1791 8.21901 16.2571 8.19775 16.3334 8.20881C16.3966 8.21816 16.4478 8.24792 16.4755 8.29299C16.4928 8.32105 16.4998 8.35336 16.498 8.40013C16.4954 8.4673 16.492 8.57954 16.394 8.64416C16.3542 8.67052 16.3074 8.68413 16.2614 8.68413V8.68498ZM16.2571 8.47835C16.2614 8.47835 16.271 8.47835 16.2753 8.47495C16.2822 8.46815 16.2848 8.43754 16.2857 8.41458C16.277 8.41458 16.2684 8.41798 16.2632 8.42223C16.2502 8.43329 16.2493 8.46815 16.2562 8.4792L16.2571 8.47835Z" fill="white"/>
<path d="M14.9487 9.06419C14.9036 9.06419 14.8585 9.05313 14.8187 9.03018C14.7077 8.96725 14.6809 8.83971 14.6913 8.74958C14.7043 8.63224 14.7849 8.56421 14.8377 8.51915C14.8759 8.48683 14.9227 8.45367 14.9859 8.45027C15.0683 8.44602 15.1497 8.49449 15.1879 8.57356C15.2191 8.63734 15.2191 8.69431 15.2147 8.74618C15.2069 8.83716 15.1957 8.9613 15.0813 9.02762C15.0414 9.05058 14.9946 9.06249 14.9487 9.06249V9.06419ZM14.9244 8.85161C14.94 8.86012 14.9625 8.85841 14.9738 8.85161C14.9955 8.83886 15.0007 8.77849 15.005 8.72917C15.0085 8.69176 15.005 8.679 14.9989 8.66455C14.9989 8.66285 14.9972 8.662 14.9963 8.66115C14.9929 8.6637 14.9877 8.6671 14.9799 8.6739C14.9322 8.71471 14.9053 8.73852 14.901 8.77339C14.8993 8.78529 14.9001 8.83801 14.9244 8.85161Z" fill="white"/>
<path d="M3.58614 12.087C3.54281 12.087 3.49948 12.0751 3.46395 12.0513C3.40761 12.0139 3.37208 11.9493 3.36775 11.8744C3.36255 11.7937 3.39375 11.7163 3.45008 11.667C3.50381 11.6211 3.58181 11.5998 3.65807 11.6108C3.72134 11.6202 3.77247 11.65 3.8002 11.695C3.81753 11.7214 3.82447 11.7545 3.82273 11.8022C3.82013 11.8693 3.81667 11.9816 3.71874 12.0462C3.67887 12.0726 3.63207 12.0862 3.58614 12.0862V12.087ZM3.58181 11.8804C3.58614 11.8804 3.59567 11.8804 3.60001 11.877C3.60694 11.8702 3.60954 11.8396 3.61127 11.8166C3.60261 11.8166 3.59394 11.82 3.58874 11.8243C3.57574 11.8362 3.57487 11.8702 3.58181 11.8812V11.8804Z" fill="white"/>
<path d="M2.11365 13.0717C2.06165 13.0717 2.01225 13.0581 1.97065 13.0317C1.82333 12.9373 1.83893 12.7316 1.88486 12.6168C1.93426 12.4935 2.05385 12.3659 2.20205 12.3787C2.27138 12.3846 2.31817 12.4204 2.33551 12.434C2.45684 12.5266 2.52097 12.7341 2.4239 12.894C2.37277 12.9773 2.28351 13.0411 2.18558 13.0632C2.16131 13.0683 2.13705 13.0717 2.11365 13.0717ZM2.18211 12.5845C2.15611 12.5845 2.10498 12.6338 2.08158 12.6925C2.05818 12.7511 2.05558 12.8396 2.08678 12.8591C2.09805 12.8659 2.11712 12.8676 2.13878 12.8625C2.18038 12.8532 2.22284 12.8234 2.24364 12.7885C2.28524 12.7205 2.24971 12.6295 2.20638 12.5972C2.20031 12.5921 2.19165 12.5853 2.18385 12.5853C2.18385 12.5853 2.18298 12.5853 2.18211 12.5853V12.5845Z" fill="white"/>
<path d="M6.19202 7.41379C6.14002 7.41379 6.09062 7.40018 6.04902 7.37382C5.9017 7.27944 5.91729 7.07367 5.96323 6.95888C6.01262 6.83558 6.13395 6.70804 6.28041 6.72079C6.34975 6.72675 6.39654 6.76246 6.41388 6.77606C6.53521 6.8696 6.59934 7.07622 6.50227 7.23607C6.45114 7.3194 6.36188 7.38318 6.26395 7.40528C6.23968 7.41039 6.21542 7.41379 6.19202 7.41379ZM6.16429 7.20036C6.17555 7.20802 6.19462 7.20887 6.21628 7.20376C6.25788 7.19441 6.30035 7.16465 6.32115 7.12979C6.36275 7.06176 6.32635 6.97163 6.28388 6.93847C6.27782 6.93337 6.26915 6.92657 6.26135 6.92657C6.23448 6.92316 6.18249 6.97418 6.15909 7.03455C6.13569 7.09322 6.13309 7.18166 6.16429 7.20121V7.20036Z" fill="white"/>
<path d="M9.63709 11.5964C9.58509 11.5964 9.53569 11.5828 9.49409 11.5564C9.34676 11.4621 9.36236 11.2563 9.40829 11.1415C9.45769 11.0182 9.57642 10.8907 9.72548 10.9034C9.79481 10.9094 9.84161 10.9451 9.85895 10.9587C9.98027 11.0514 10.0444 11.2588 9.94734 11.4187C9.89621 11.5029 9.80695 11.5658 9.70815 11.5879C9.68388 11.593 9.65962 11.5964 9.63622 11.5964H9.63709ZM9.60935 11.383C9.62062 11.3898 9.63969 11.3915 9.66135 11.3864C9.70295 11.377 9.74542 11.3473 9.76708 11.3124C9.80868 11.2444 9.77228 11.1542 9.72982 11.1211C9.72375 11.116 9.71422 11.1092 9.70728 11.1092C9.68562 11.1058 9.62842 11.1568 9.60502 11.2172C9.58162 11.2758 9.57902 11.3643 9.61022 11.3838L9.60935 11.383Z" fill="white"/>
<path d="M11.0956 16.6855C11.0436 16.6855 10.9942 16.6718 10.9526 16.6455C10.8053 16.5511 10.8209 16.3453 10.8668 16.2305C10.9162 16.1073 11.0367 15.9797 11.184 15.9925C11.2533 15.9984 11.3001 16.0341 11.3174 16.0477C11.4388 16.1404 11.5029 16.3479 11.4058 16.5077C11.3547 16.5911 11.2654 16.6548 11.1675 16.677C11.1432 16.6821 11.119 16.6855 11.0956 16.6855ZM11.0679 16.472C11.0791 16.4797 11.0982 16.4805 11.1198 16.4754C11.1614 16.4661 11.2039 16.4363 11.2247 16.4015C11.2663 16.3334 11.2308 16.2424 11.1874 16.2101C11.1814 16.205 11.1727 16.1982 11.1649 16.1982C11.1415 16.194 11.086 16.2459 11.0627 16.3062C11.0393 16.3649 11.0367 16.4533 11.0679 16.4729V16.472Z" fill="white"/>
<path d="M10.1821 14.1966C10.1465 14.1966 10.1119 14.1889 10.0789 14.1728C9.99053 14.1277 9.93507 14.0197 9.93073 13.882C9.9264 13.7578 9.96627 13.5988 10.0902 13.5249C10.1968 13.4611 10.3693 13.4602 10.4568 13.5606C10.4897 13.598 10.5001 13.6388 10.507 13.6779C10.5278 13.7944 10.5556 13.9543 10.4368 14.0801C10.3753 14.1456 10.2765 14.1966 10.1821 14.1966ZM10.176 13.9891C10.1907 13.9942 10.2471 13.9764 10.2826 13.9389C10.3268 13.8922 10.3181 13.8191 10.2999 13.7128C10.2973 13.6975 10.2956 13.6924 10.2947 13.6915C10.2852 13.6847 10.2297 13.683 10.1994 13.7009C10.1656 13.7213 10.1405 13.7893 10.1405 13.8624C10.1405 13.9406 10.1665 13.9823 10.1751 13.9883L10.176 13.9891Z" fill="white"/>
<path d="M9.96187 13.2443C9.91854 13.2443 9.87521 13.2324 9.83968 13.2086C9.78335 13.1712 9.74781 13.1066 9.74348 13.0317C9.73828 12.9509 9.76948 12.8736 9.82581 12.8243C9.87954 12.7783 9.95754 12.7571 10.0338 12.7681C10.0971 12.7775 10.1482 12.8072 10.1759 12.8523C10.1933 12.8787 10.2002 12.9118 10.1985 12.9595C10.1959 13.0266 10.1924 13.1389 10.0945 13.2035C10.0546 13.2298 10.0078 13.2435 9.96187 13.2435V13.2443ZM9.95754 13.0368C9.96187 13.0368 9.97141 13.0368 9.97574 13.0334C9.98267 13.0266 9.98527 12.996 9.98614 12.9731C9.97747 12.9731 9.96881 12.9765 9.96361 12.9807C9.95061 12.9926 9.94974 13.0266 9.95667 13.0377L9.95754 13.0368Z" fill="white"/>
<path d="M2.31832 4.08482C2.27499 4.08482 2.23166 4.07291 2.19612 4.04911C2.13979 4.01169 2.10426 3.94707 2.09993 3.87224C2.09473 3.79146 2.12593 3.71409 2.18226 3.66477C2.23599 3.61885 2.31399 3.5976 2.39025 3.60865C2.45351 3.618 2.50378 3.64776 2.53238 3.69283C2.54971 3.72004 2.55664 3.7532 2.55491 3.79997C2.55231 3.86714 2.54884 3.97938 2.45091 4.044C2.41105 4.07036 2.36425 4.08397 2.31832 4.08397V4.08482ZM2.31399 3.87819C2.31919 3.87819 2.32785 3.87819 2.33218 3.87479C2.33912 3.86799 2.34172 3.83738 2.34258 3.81442C2.33392 3.81442 2.32525 3.81782 2.32005 3.82208C2.30705 3.83313 2.30619 3.86799 2.31312 3.87905L2.31399 3.87819Z" fill="white"/>
<path d="M2.83118 4.90536C2.77918 4.90536 2.72978 4.89176 2.68818 4.8654C2.54086 4.77102 2.55646 4.56524 2.60239 4.45045C2.65178 4.32716 2.77051 4.19962 2.91957 4.21237C2.98891 4.21832 3.0357 4.25404 3.05304 4.26764C3.17437 4.36032 3.2385 4.5678 3.14143 4.72765C3.0903 4.81098 3.00104 4.87475 2.90311 4.89686C2.87884 4.90196 2.85458 4.90536 2.83118 4.90536ZM2.89964 4.41814C2.87364 4.41814 2.82165 4.46746 2.79825 4.52613C2.77485 4.5848 2.77225 4.67323 2.80345 4.69279C2.81471 4.69959 2.83378 4.70129 2.85544 4.69619C2.89704 4.68684 2.93951 4.65708 2.96031 4.62222C3.00191 4.55419 2.96637 4.46321 2.92304 4.4309C2.91697 4.4258 2.90744 4.41899 2.90051 4.41899C2.90051 4.41899 2.89964 4.41899 2.89878 4.41899L2.89964 4.41814Z" fill="white"/>
<path d="M3.66663 5.71575C3.61463 5.71575 3.56523 5.70214 3.52363 5.67578C3.3763 5.5814 3.3919 5.37563 3.43784 5.26084C3.48723 5.13754 3.6077 5.01085 3.75502 5.02275C3.82522 5.0287 3.87115 5.06442 3.88935 5.07802C4.01068 5.1707 4.07481 5.37818 3.97688 5.53803C3.92575 5.62136 3.83649 5.68514 3.73856 5.70724C3.71429 5.71234 3.69003 5.71575 3.66663 5.71575ZM3.6389 5.50232C3.65016 5.50912 3.66923 5.51082 3.69089 5.50572C3.73249 5.49637 3.77496 5.46661 3.79662 5.43175C3.83822 5.36372 3.80182 5.27359 3.75936 5.24043C3.75242 5.23533 3.74462 5.22852 3.73682 5.22852C3.71256 5.22427 3.65796 5.27699 3.63456 5.33651C3.61116 5.39518 3.60856 5.48361 3.6389 5.50317V5.50232Z" fill="white"/>
</g>
<defs>
<clipPath id="clip0_487_12283">
<rect width="18" height="18" fill="white"/>
</clipPath>
</defs>
</svg>
